HIERARCHY
ROOT Hips
{
  OFFSET -21.7848 93.0946 1805.31
  CHANNELS 6 Xposition Yposition Zposition Zrotation Xrotation Yrotation
  JOINT Spine
  {
    OFFSET 0 8 0
    CHANNELS 6 Xposition Yposition Zposition Zrotation Xrotation Yrotation
    JOINT Spine1
    {
      OFFSET 0 8 0
      CHANNELS 6 Xposition Yposition Zposition Zrotation Xrotation Yrotation
      JOINT Spine2
      {
        OFFSET 0 8 0
        CHANNELS 6 Xposition Yposition Zposition Zrotation Xrotation Yrotation
        JOINT Spine3
        {
          OFFSET 0 8 0
          CHANNELS 6 Xposition Yposition Zposition Zrotation Xrotation Yrotation
          JOINT Neck
          {
            OFFSET 0 17 0
            CHANNELS 6 Xposition Yposition Zposition Zrotation Xrotation Yrotation
            JOINT Head
            {
              OFFSET 0 10.8 0
              CHANNELS 6 Xposition Yposition Zposition Zrotation Xrotation Yrotation
              End Site
              {
                OFFSET 0 20.25 0
              }
            }
          }
          JOINT LeftShoulder
          {
            OFFSET 5 17 0
            CHANNELS 6 Xposition Yposition Zposition Zrotation Xrotation Yrotation
            JOINT LeftShoulder2
            {
              OFFSET 6.45 0 0
              CHANNELS 6 Xposition Yposition Zposition Zrotation Xrotation Yrotation
              JOINT LeftArm
              {
                OFFSET 6.45 0 0
                CHANNELS 6 Xposition Yposition Zposition Zrotation Xrotation Yrotation
                JOINT LeftForeArm
                {
                  OFFSET 0 -32.4 -2
                  CHANNELS 6 Xposition Yposition Zposition Zrotation Xrotation Yrotation
                  JOINT LeftHand
                  {
                    OFFSET 0 -25.65 2
                    CHANNELS 6 Xposition Yposition Zposition Zrotation Xrotation Yrotation
                    JOINT LeftHandThumb1
                    {
                      OFFSET -0.5 -1.5 2.65
                      CHANNELS 6 Xposition Yposition Zposition Zrotation Xrotation Yrotation
                      JOINT LeftHandThumb2
                      {
                        OFFSET 0 -3.8 3.7
                        CHANNELS 6 Xposition Yposition Zposition Zrotation Xrotation Yrotation
                        JOINT LeftHandThumb3
                        {
                          OFFSET 0 -3 2.7
                          CHANNELS 6 Xposition Yposition Zposition Zrotation Xrotation Yrotation
                          End Site
                          {
                            OFFSET 0 -2.3 1.8
                          }
                        }
                      }
                    }
                    JOINT LeftHandIndex
                    {
                      OFFSET 0 -1.9 1.6
                      CHANNELS 6 Xposition Yposition Zposition Zrotation Xrotation Yrotation
                      JOINT LeftHandIndex1
                      {
                        OFFSET 0 -8.3 1.9
                        CHANNELS 6 Xposition Yposition Zposition Zrotation Xrotation Yrotation
                        JOINT LeftHandIndex2
                        {
                          OFFSET 0 -4.5 0
                          CHANNELS 6 Xposition Yposition Zposition Zrotation Xrotation Yrotation
                          JOINT LeftHandIndex3
                          {
                            OFFSET 0 -3.4 0
                            CHANNELS 6 Xposition Yposition Zposition Zrotation Xrotation Yrotation
                            End Site
                            {
                              OFFSET 0 -2.6 0
                            }
                          }
                        }
                      }
                    }
                    JOINT LeftHandMiddle
                    {
                      OFFSET -0.25 -2.2 0.4
                      CHANNELS 6 Xposition Yposition Zposition Zrotation Xrotation Yrotation
                      JOINT LeftHandMiddle1
                      {
                        OFFSET 0 -8.3 1
                        CHANNELS 6 Xposition Yposition Zposition Zrotation Xrotation Yrotation
                        JOINT LeftHandMiddle2
                        {
                          OFFSET 0 -4.65 0
                          CHANNELS 6 Xposition Yposition Zposition Zrotation Xrotation Yrotation
                          JOINT LeftHandMiddle3
                          {
                            OFFSET 0 -3.3 0
                            CHANNELS 6 Xposition Yposition Zposition Zrotation Xrotation Yrotation
                            End Site
                            {
                              OFFSET 0 -2.7 0
                            }
                          }
                        }
                      }
                    }
                    JOINT LeftHandRing
                    {
                      OFFSET -0.5 -2.15 -0.8
                      CHANNELS 6 Xposition Yposition Zposition Zrotation Xrotation Yrotation
                      JOINT LeftHandRing1
                      {
                        OFFSET 0 -7.75 -0.2
                        CHANNELS 6 Xposition Yposition Zposition Zrotation Xrotation Yrotation
                        JOINT LeftHandRing2
                        {
                          OFFSET 0 -3.8 0
                          CHANNELS 6 Xposition Yposition Zposition Zrotation Xrotation Yrotation
                          JOINT LeftHandRing3
                          {
                            OFFSET 0 -3.4 0
                            CHANNELS 6 Xposition Yposition Zposition Zrotation Xrotation Yrotation
                            End Site
                            {
                              OFFSET 0 -2.6 0
                            }
                          }
                        }
                      }
                    }
                    JOINT LeftHandPinky
                    {
                      OFFSET -0.75 -1.75 -1.85
                      CHANNELS 6 Xposition Yposition Zposition Zrotation Xrotation Yrotation
                      JOINT LeftHandPinky1
                      {
                        OFFSET 0 -7.15 -1
                        CHANNELS 6 Xposition Yposition Zposition Zrotation Xrotation Yrotation
                        JOINT LeftHandPinky2
                        {
                          OFFSET 0 -3 0
                          CHANNELS 6 Xposition Yposition Zposition Zrotation Xrotation Yrotation
                          JOINT LeftHandPinky3
                          {
                            OFFSET 0 -2.35 0
                            CHANNELS 6 Xposition Yposition Zposition Zrotation Xrotation Yrotation
                            End Site
                            {
                              OFFSET 0 -2.1 0
                            }
                          }
                        }
                      }
                    }
                  }
                }
              }
            }
          }
          JOINT RightShoulder
          {
            OFFSET -5 17 0
            CHANNELS 6 Xposition Yposition Zposition Zrotation Xrotation Yrotation
            JOINT RightShoulder2
            {
              OFFSET -6.45 0 0
              CHANNELS 6 Xposition Yposition Zposition Zrotation Xrotation Yrotation
              JOINT RightArm
              {
                OFFSET -6.45 0 0
                CHANNELS 6 Xposition Yposition Zposition Zrotation Xrotation Yrotation
                JOINT RightForeArm
                {
                  OFFSET 0 -32.4 -2
                  CHANNELS 6 Xposition Yposition Zposition Zrotation Xrotation Yrotation
                  JOINT RightHand
                  {
                    OFFSET 0 -25.65 2
                    CHANNELS 6 Xposition Yposition Zposition Zrotation Xrotation Yrotation
                    JOINT RightHandThumb1
                    {
                      OFFSET 0.5 -1.5 2.65
                      CHANNELS 6 Xposition Yposition Zposition Zrotation Xrotation Yrotation
                      JOINT RightHandThumb2
                      {
                        OFFSET 0 -3.8 3.7
                        CHANNELS 6 Xposition Yposition Zposition Zrotation Xrotation Yrotation
                        JOINT RightHandThumb3
                        {
                          OFFSET 0 -3 2.7
                          CHANNELS 6 Xposition Yposition Zposition Zrotation Xrotation Yrotation
                          End Site
                          {
                            OFFSET 0 -2.3 1.8
                          }
                        }
                      }
                    }
                    JOINT RightHandIndex
                    {
                      OFFSET 0 -1.9 1.6
                      CHANNELS 6 Xposition Yposition Zposition Zrotation Xrotation Yrotation
                      JOINT RightHandIndex1
                      {
                        OFFSET 0 -8.3 1.9
                        CHANNELS 6 Xposition Yposition Zposition Zrotation Xrotation Yrotation
                        JOINT RightHandIndex2
                        {
                          OFFSET 0 -4.5 0
                          CHANNELS 6 Xposition Yposition Zposition Zrotation Xrotation Yrotation
                          JOINT RightHandIndex3
                          {
                            OFFSET 0 -3.4 0
                            CHANNELS 6 Xposition Yposition Zposition Zrotation Xrotation Yrotation
                            End Site
                            {
                              OFFSET 0 -2.6 0
                            }
                          }
                        }
                      }
                    }
                    JOINT RightHandMiddle
                    {
                      OFFSET 0.25 -2.2 0.4
                      CHANNELS 6 Xposition Yposition Zposition Zrotation Xrotation Yrotation
                      JOINT RightHandMiddle1
                      {
                        OFFSET 0 -8.3 1
                        CHANNELS 6 Xposition Yposition Zposition Zrotation Xrotation Yrotation
                        JOINT RightHandMiddle2
                        {
                          OFFSET 0 -4.65 0
                          CHANNELS 6 Xposition Yposition Zposition Zrotation Xrotation Yrotation
                          JOINT RightHandMiddle3
                          {
                            OFFSET 0 -3.3 0
                            CHANNELS 6 Xposition Yposition Zposition Zrotation Xrotation Yrotation
                            End Site
                            {
                              OFFSET 0 -2.7 0
                            }
                          }
                        }
                      }
                    }
                    JOINT RightHandRing
                    {
                      OFFSET 0.5 -2.15 -0.8
                      CHANNELS 6 Xposition Yposition Zposition Zrotation Xrotation Yrotation
                      JOINT RightHandRing1
                      {
                        OFFSET 0 -7.75 -0.2
                        CHANNELS 6 Xposition Yposition Zposition Zrotation Xrotation Yrotation
                        JOINT RightHandRing2
                        {
                          OFFSET 0 -3.8 0
                          CHANNELS 6 Xposition Yposition Zposition Zrotation Xrotation Yrotation
                          JOINT RightHandRing3
                          {
                            OFFSET 0 -3.4 0
                            CHANNELS 6 Xposition Yposition Zposition Zrotation Xrotation Yrotation
                            End Site
                            {
                              OFFSET 0 -2.6 0
                            }
                          }
                        }
                      }
                    }
                    JOINT RightHandPinky
                    {
                      OFFSET 0.75 -1.75 -1.85
                      CHANNELS 6 Xposition Yposition Zposition Zrotation Xrotation Yrotation
                      JOINT RightHandPinky1
                      {
                        OFFSET 0 -7.15 -1
                        CHANNELS 6 Xposition Yposition Zposition Zrotation Xrotation Yrotation
                        JOINT RightHandPinky2
                        {
                          OFFSET 0 -3 0
                          CHANNELS 6 Xposition Yposition Zposition Zrotation Xrotation Yrotation
                          JOINT RightHandPinky3
                          {
                            OFFSET 0 -2.35 0
                            CHANNELS 6 Xposition Yposition Zposition Zrotation Xrotation Yrotation
                            End Site
                            {
                              OFFSET 0 -2.1 0
                            }
                          }
                        }
                      }
                    }
                  }
                }
              }
            }
          }
        }
      }
    }
  }
  JOINT LeftUpLeg
  {
    OFFSET 8 0 0
    CHANNELS 6 Xposition Yposition Zposition Zrotation Xrotation Yrotation
    JOINT LeftLeg
    {
      OFFSET 0 -45 -1
      CHANNELS 6 Xposition Yposition Zposition Zrotation Xrotation Yrotation
      JOINT LeftFoot
      {
        OFFSET 0 -41 -2
        CHANNELS 6 Xposition Yposition Zposition Zrotation Xrotation Yrotation
        JOINT LeftToeBase
        {
          OFFSET 0 -7.5 12.5
          CHANNELS 6 Xposition Yposition Zposition Zrotation Xrotation Yrotation
          JOINT LeftFootToe
          {
            OFFSET 0 0 4
            CHANNELS 6 Xposition Yposition Zposition Zrotation Xrotation Yrotation
            End Site
            {
              OFFSET 0 0 0
            }
          }
        }
      }
    }
  }
  JOINT RightUpLeg
  {
    OFFSET -8 0 0
    CHANNELS 6 Xposition Yposition Zposition Zrotation Xrotation Yrotation
    JOINT RightLeg
    {
      OFFSET 0 -45 -1
      CHANNELS 6 Xposition Yposition Zposition Zrotation Xrotation Yrotation
      JOINT RightFoot
      {
        OFFSET 0 -41 -2
        CHANNELS 6 Xposition Yposition Zposition Zrotation Xrotation Yrotation
        JOINT RightToeBase
        {
          OFFSET 0 -7.5 12.5
          CHANNELS 6 Xposition Yposition Zposition Zrotation Xrotation Yrotation
          JOINT RightFootToe
          {
            OFFSET 0 0 4
            CHANNELS 6 Xposition Yposition Zposition Zrotation Xrotation Yrotation
            End Site
            {
              OFFSET 0 0 0
            }
          }
        }
      }
    }
  }
}
MOTION
Frames:	3
Frame Time:	0.0111111
-278.155 94.3943 627.63 -12.8198 -4.56378 158.141 2.84217e-14 8 1.13687e-13 17.1839 12.2256 -4.86066 -5.68434e-14 8 -1.13687e-13 3.97815 6.21824 -0.722729 2.84217e-14 8 0 1.9765 3.11591 -0.307142 -2.84217e-14 8 0 1.97235 3.10948 -0.306388 0 17 0 -0.56565 3.28547 -3.62184 -2.84217e-14 10.8 0 -0.997971 7.71991 -8.44402 5 17 1.13687e-13 -2.36621 -1.13274 6.00148 6.45 0 0 -0.372257 -0.269972 0.538366 6.45 2.84217e-14 0 28.8444 -13.2847 -2.34575 0 -32.4 -2 -61.9805 -72.6184 -77.1881 -5.68434e-14 -25.65 2 31.2727 -23.5634 -41.3312 -0.5 -1.5 2.65 -27.0922 -33.7046 -25.1362 0 -3.8 3.7 -0.119049 34.6961 -0.013375 0 -3 2.7 -0.00830233 -0.537195 0.0131375 0 -1.9 1.6 1.59028e-15 -3.18055e-15 -1.59028e-15 0 -8.3 1.9 -1.43697 -4.0903 -0.0231852 0 -4.5 -5.68434e-14 -82.7479 -0.00463182 0.000333228 0 -3.4 2.84217e-14 -71.0466 -0.00173698 -0.00505791 -0.25 -2.2 0.4 1.59028e-15 -3.18055e-15 -1.59028e-15 0 -8.3 1 -12.3476 8.60602 1.71643 2.13163e-14 -4.65 0 -56.9508 -0.0171366 -0.00700072 0 -3.3 -5.68434e-14 -39.6054 -0.00685989 -0.0125208 -0.5 -2.15 -0.8 1.59028e-15 -3.18055e-15 -1.59028e-15 0 -7.75 -0.2 -35.5045 15.9658 7.36542 0 -3.8 5.68434e-14 -72.5366 -0.0201744 -0.064128 1.13687e-13 -3.4 0 -55.157 0.0497809 -0.0662674 -0.75 -1.75 -1.85 1.59028e-15 -3.18055e-15 -1.59028e-15 0 -7.15 -1 -56.3156 16.1968 12.9039 5.68434e-14 -3 -2.84217e-14 -30.5793 -0.222669 -0.130172 0 -2.35 8.52651e-14 -22.3506 -0.0975845 -0.12478 -5 17 0 4.77426 -1.93344 6.40455 -6.45 0 0 -1.31972 0.795264 -0.463367 -6.45 0 0 -51.9136 -9.17745 -24.7526 2.84217e-14 -32.4 -2 -9.14059 -27.3039 37.3121 5.68434e-14 -25.65 2 -20.3557 -19.5733 18.981 0.5 -1.5 2.65 19.4664 -20.3773 12.1391 0 -3.8 3.7 0.339935 20.1955 -0.140585 0 -3 2.7 0.00778555 15.4889 -0.00879282 0 -1.9 1.6 -1.59028e-15 0 3.18055e-15 0 -8.3 1.9 8.89382 -22.6579 1.46272 0 -4.5 2.84217e-14 7.20143 0.00143481 -0.000825986 0 -3.4 -2.84217e-14 6.53165 0.00113077 -0.000864956 0.25 -2.2 0.4 -1.59028e-15 0 3.18055e-15 -5.68434e-14 -8.3 1 7.81451 -17.5988 0.929338 5.68434e-14 -4.65 0 12.0536 0.00338698 -0.00449565 0 -3.3 2.84217e-14 10.348 0.00196936 -0.00385085 0.5 -2.15 -0.8 -1.59028e-15 0 3.18055e-15 -5.68434e-14 -7.75 -0.2 6.18008 -6.98647 0.222197 5.68434e-14 -3.8 0 3.43202e-09 0.000435514 -0.000451512 0 -3.4 0 3.57855e-09 0.000432565 -0.000474 0.75 -1.75 -1.85 -1.59028e-15 0 3.18055e-15 0 -7.15 -1 6.12377 -0.818611 -0.0542126 -1.13687e-13 -3 0 -3.18052e-15 3.18055e-15 -0.000650113 0 -2.35 0 0 0 -0.000757743 8 0 1.13687e-13 1.7701 -16.7264 -11.6616 2.84217e-14 -45 -1 -0.178358 13.2722 2.56261 0 -41 -2 -4.57385 2.93019 -0.906265 -5.68434e-14 -7.5 12.5 -3.53113e-31 -3.18055e-15 -6.36111e-15 0 0 4 -2.86577 -2.2334 39.2841 -8 0 0 -14.3803 -17.0315 -9.75297 8.52651e-14 -45 -1 0.0630371 10.3485 -1.63621 -8.52651e-14 -41 -2 2.56667 -1.60287 -7.53334 0 -7.5 12.5 -4.85314e-20 -9.70628e-20 9.54166e-15 2.84217e-14 0 4 2.83294 -1.77326 33.325 
-278.05 94.3443 627.664 -12.7705 -4.57293 158.184 -2.84217e-14 8 0 17.1852 12.211 -4.86618 1.13687e-13 8 0 3.97446 6.21652 -0.72918 -5.68434e-14 8 0 1.97646 3.11545 -0.310428 0 8 -1.13687e-13 1.97231 3.10902 -0.309666 -2.84217e-14 17 0 -0.587714 3.33496 -3.56228 0 10.8 0 -1.05034 7.83696 -8.30242 5 17 0 -2.42174 -1.08892 5.97997 6.45 2.84217e-14 0 -0.361563 -0.281621 0.524507 6.45 -5.68434e-14 0 29.8146 -13.7125 -2.46216 2.84217e-14 -32.4 -2 -60.253 -72.5385 -75.1516 0 -25.65 2 29.7527 -23.3788 -41.692 -0.5 -1.5 2.65 -26.7327 -34.323 -25.3314 0 -3.8 3.7 -0.122495 34.8664 -0.00697663 0 -3 2.7 -0.00837728 -0.537195 0.0132667 -1.42109e-14 -1.9 1.6 1.11319e-14 3.18055e-15 1.03368e-14 0 -8.3 1.9 -1.3612 -3.39595 -0.00544666 0 -4.5 5.68434e-14 -82.3065 -0.00518783 -0.00456587 0 -3.4 0 -70.1886 0.00463715 -0.0122246 -0.25 -2.2 0.4 1.11319e-14 3.18055e-15 1.03368e-14 -1.42109e-14 -8.3 1 -13.1061 8.9743 1.88849 -2.13163e-14 -4.65 0 -56.1349 -0.0392727 -0.021628 -1.13687e-13 -3.3 0 -39.0067 -0.0132134 -0.0311566 -0.5 -2.15 -0.8 1.11319e-14 3.18055e-15 1.03368e-14 -1.42109e-14 -7.75 -0.2 -37.8539 16.1021 8.03022 0 -3.8 0 -71.228 -0.0279314 -0.080373 0 -3.4 -2.84217e-14 -53.5652 0.056636 -0.0831474 -0.75 -1.75 -1.85 1.11319e-14 3.18055e-15 1.03368e-14 -1.42109e-14 -7.15 -1 -58.6191 15.7307 13.4041 5.68434e-14 -3 0 -26.7981 -0.279163 -0.149121 0 -2.35 -2.84217e-14 -19.9453 -0.134945 -0.146997 -5 17 0 4.79379 -1.92181 6.44635 -6.45 5.68434e-14 0 -1.31842 0.779517 -0.4772 -6.45 2.84217e-14 0 -52.0257 -9.26363 -24.5283 0 -32.4 -2 -9.12114 -27.1629 37.3245 0 -25.65 2 -20.3448 -19.341 19.0439 0.5 -1.5 2.65 19.9821 -20.1717 12.3491 0 -3.8 3.7 0.349641 20.1194 -0.14468 1.13687e-13 -3 2.7 -0.00361703 16.5715 0.018652 0 -1.9 1.6 -4.77083e-15 -9.54166e-15 6.36111e-15 5.68434e-14 -8.3 1.9 8.67261 -22.4365 1.40888 0 -4.5 2.84217e-14 7.19243 0.00333578 0.00530875 5.68434e-14 -3.4 0 6.52377 0.00293961 0.00460691 0.25 -2.2 0.4 -4.77083e-15 -9.54166e-15 6.36111e-15 0 -8.3 1 7.90905 -17.4402 0.936229 0 -4.65 5.68434e-14 12.3465 -0.00105598 0.0010348 0 -3.3 2.84217e-14 10.5744 6.03067e-05 0.000903017 0.5 -2.15 -0.8 -4.77083e-15 -9.54166e-15 6.36111e-15 -5.68434e-14 -7.75 -0.2 6.90697 -7.00497 0.257993 -5.68434e-14 -3.8 0 3.49313e-09 0.000438782 -0.00045613 0 -3.4 5.68434e-14 3.64231e-09 0.000435811 -0.00047885 0.75 -1.75 -1.85 -4.77083e-15 -9.54166e-15 6.36111e-15 0 -7.15 -1 7.32054 -1.00635 -0.0537043 5.68434e-14 -3 0 -4.7708e-15 3.18055e-15 -0.000598574 0 -2.35 -5.68434e-14 -1.27223e-14 -3.18055e-15 -0.000714764 8 1.42109e-14 1.13687e-13 1.91278 -16.5968 -11.6289 0 -45 -1 -0.171955 13.0122 2.55985 -5.68434e-14 -41 -2 -4.70563 3.11926 -0.853341 -8.52651e-14 -7.5 12.5 1.98785e-15 2.38542e-15 -0 -2.84217e-14 0 4 -2.84156 -2.24142 39.2713 -8 -7.10543e-15 0 -14.295 -17.308 -9.59744 -2.84217e-14 -45 -1 0.069436 10.9723 -1.60224 -2.84217e-14 -41 -2 2.50451 -1.95485 -7.64157 0 -7.5 12.5 2.18391e-19 4.85314e-20 9.54166e-15 2.84217e-14 0 4 2.85653 -1.85696 33.328 
-277.936 94.2981 627.698 -12.7309 -4.57335 158.228 2.84217e-14 8 0 17.1592 12.193 -4.87345 5.68434e-14 8 0 3.9659 6.21549 -0.7295 -2.84217e-14 8 0 1.97216 3.11493 -0.310221 -5.68434e-14 8 0 1.96805 3.10851 -0.309461 0 17 0 -0.608948 3.38374 -3.49475 -2.84217e-14 10.8 -1.13687e-13 -1.10173 7.95212 -8.14215 5 17 0 -2.47679 -1.03838 5.90203 6.45 2.84217e-14 1.13687e-13 -0.352186 -0.290974 0.508925 6.45 -2.84217e-14 0 30.769 -14.1071 -2.62403 -2.84217e-14 -32.4 -2 -58.5111 -72.5214 -73.2244 0 -25.65 2 28.3748 -23.2656 -42.0972 -0.5 -1.5 2.65 -26.2757 -35.0852 -25.3782 -5.68434e-14 -3.8 3.7 -0.124823 34.981 -0.00258261 0 -3 2.7 -0.00844914 -0.537194 0.0133907 1.42109e-14 -1.9 1.6 -6.36111e-15 9.54166e-15 -1.03368e-14 -1.42109e-14 -8.3 1.9 -1.35528 -2.60619 0.0106349 4.26326e-14 -4.5 5.68434e-14 -81.6926 -0.0113855 -0.0146585 0 -3.4 0 -69.0871 0.0169272 -0.0289165 -0.25 -2.2 0.4 -6.36111e-15 9.54166e-15 -1.03368e-14 1.42109e-14 -8.3 1 -14.0994 9.56344 2.12456 0 -4.65 0 -54.6158 -0.062473 -0.0489189 0 -3.3 0 -37.9144 -0.0151006 -0.0560218 -0.5 -2.15 -0.8 -6.36111e-15 9.54166e-15 -1.03368e-14 0 -7.75 -0.2 -40.2944 16.1964 8.72386 0 -3.8 -2.84217e-14 -69.9712 -0.0328983 -0.0902461 0 -3.4 2.84217e-14 -52.0781 0.0586007 -0.0933667 -0.75 -1.75 -1.85 -6.36111e-15 9.54166e-15 -1.03368e-14 -1.42109e-14 -7.15 -1 -61.2319 15.1067 13.9252 0 -3 0 -22.4682 -0.323143 -0.153726 0 -2.35 0 -17.0871 -0.17547 -0.157784 -5 17 0 4.8225 -1.9252 6.46549 -6.45 -2.84217e-14 0 -1.31714 0.769163 -0.482586 -6.45 -2.84217e-14 0 -52.1134 -9.36258 -24.3423 2.84217e-14 -32.4 -2 -9.09819 -26.9597 37.2601 0 -25.65 2 -20.23 -19.1222 19.0581 0.5 -1.5 2.65 20.6729 -19.8688 12.6994 -1.13687e-13 -3.8 3.7 0.362867 20.0734 -0.150172 1.13687e-13 -3 2.7 -0.0249126 18.5175 0.0879773 0 -1.9 1.6 1.11319e-14 -6.36111e-15 6.36111e-15 -5.68434e-14 -8.3 1.9 8.47668 -22.2337 1.36207 0 -4.5 -5.68434e-14 6.85296 0.0071156 0.00521185 0 -3.4 -2.84217e-14 6.23266 0.00640179 0.00468691 0.25 -2.2 0.4 1.11319e-14 -6.36111e-15 6.36111e-15 -5.68434e-14 -8.3 1 7.96901 -17.3059 0.940331 0 -4.65 0 12.3677 -0.00104976 0.00121331 1.13687e-13 -3.3 -2.84217e-14 10.5903 -0.0015811 0.00136593 0.5 -2.15 -0.8 1.11319e-14 -6.36111e-15 6.36111e-15 0 -7.75 -0.2 7.47463 -7.05172 0.290782 0 -3.8 0 3.52153e-09 0.000439902 -0.000458669 -5.68434e-14 -3.4 0 3.67193e-09 0.000436923 -0.000481518 0.75 -1.75 -1.85 1.11319e-14 -6.36111e-15 6.36111e-15 0 -7.15 -1 8.25257 -1.2003 -0.0433579 0 -3 0 -1.59031e-15 -3.18055e-15 -0.000545484 0 -2.35 0 -1.59024e-15 3.18055e-15 -0.000672762 8 7.10543e-15 1.13687e-13 2.05643 -16.4641 -11.5376 0 -45 -1 -0.166319 12.7508 2.55714 0 -41 -2 -4.84373 3.30755 -0.863163 2.84217e-14 -7.5 12.5 7.95139e-16 3.18055e-15 -0 0 0 4 -2.81045 -2.24896 39.2861 -8 0 1.13687e-13 -14.2191 -17.5541 -9.46644 5.68434e-14 -45 -1 0.0783941 11.5432 -1.56738 -5.68434e-14 -41 -2 2.43943 -2.28129 -7.75124 2.84217e-14 -7.5 12.5 -3.88251e-19 3.88251e-19 6.36111e-15 5.68434e-14 0 4 2.88201 -1.93901 33.3461 
